<svg width="28" height="28" viewBox="0 0 28 28" fill="none" xmlns="http://www.w3.org/2000/svg">
<path fill-rule="evenodd" clip-rule="evenodd" d="M1 14C1 6.8203 6.8203 1 14 1C21.1797 1 27 6.8203 27 14C27 21.1797 21.1797 27 14 27C6.8203 27 1 21.1797 1 14ZM13 6C13 5.44772 13.4477 5 14 5C14.5523 5 15 5.44772 15 6V13H22C22.5523 13 23 13.4477 23 14C23 14.5523 22.5523 15 22 15H15V22C15 22.5523 14.5523 23 14 23C13.4477 23 13 22.5523 13 22V15H6C5.44772 15 5 14.5523 5 14C5 13.4477 5.44772 13 6 13H13V6Z" fill="#86B3F7"/>
</svg>
