<svg width="28" height="28" viewBox="0 0 28 28" fill="none" xmlns="http://www.w3.org/2000/svg">
<path d="M16.9526 1.04262C20.0679 1.76915 22.8059 3.61875 24.6428 6.23757C26.4797 8.85639 27.2866 12.0606 26.9092 15.2371C26.5316 18.4135 24.9962 21.3393 22.5967 23.4547C20.1972 25.57 17.1018 26.7264 13.9031 26.7025C10.7044 26.6787 7.62672 25.4763 5.25892 23.3254C2.89112 21.1745 1.39955 18.2262 1.06947 15.0444C0.739267 11.8626 1.59388 8.67083 3.46974 6.0797C5.34559 3.48856 8.11085 1.67999 11.2366 1L11.6511 2.90576C8.99439 3.48373 6.64393 5.02097 5.04957 7.22337C3.45521 9.42577 2.72877 12.1387 3.00929 14.8431C3.28993 17.5475 4.55775 20.0536 6.57032 21.8818C8.58277 23.71 11.1987 24.732 13.9176 24.7522C16.6365 24.7725 19.2673 23.7896 21.307 21.9917C23.3466 20.1937 24.6516 17.7068 24.9724 15.0069C25.2933 12.307 24.6074 9.58349 23.0462 7.35756C21.4848 5.13163 19.1575 3.55951 16.5097 2.94198L16.9526 1.04262Z" fill="white"/>
<path d="M20.1989 13.0908C20.4183 12.793 20.3748 12.3771 20.0984 12.1312L15.3953 7.94664C14.6571 7.28985 13.55 7.27054 12.7894 7.90118L8.08408 11.8024C7.69957 12.1212 7.67989 12.7043 8.04204 13.0483C8.35136 13.3421 8.8326 13.3549 9.1571 13.0779L12.7195 10.0377C12.8342 9.93975 12.9573 9.85682 13.0862 9.78892L13.042 18.9012C13.042 19.4535 13.4898 19.9012 14.042 19.9012C14.5943 19.9012 15.042 19.4535 15.042 18.9012L15.0862 9.86814C15.157 9.91292 15.2256 9.96257 15.2916 10.0171L19.1663 13.2182C19.4833 13.48 19.9551 13.4218 20.1989 13.0908Z" fill="white"/>
</svg>
