<svg width="28" height="28" viewBox="0 0 28 28" fill="none" xmlns="http://www.w3.org/2000/svg">
<path fill-rule="evenodd" clip-rule="evenodd" d="M14 27C21.1797 27 27 21.1797 27 14C27 6.8203 21.1797 1 14 1C6.8203 1 1 6.8203 1 14C1 21.1797 6.8203 27 14 27ZM23.1858 9.79867C22.8535 9.35758 22.2265 9.26942 21.7854 9.60177L12.4076 16.6676L9.48551 12.7143C9.15722 12.2701 8.53106 12.1762 8.08693 12.5045C7.64281 12.8328 7.54889 13.4589 7.87717 13.9031L11.2814 18.5086C11.3731 18.6327 11.4881 18.7295 11.6158 18.7973C11.9645 19.0908 12.4816 19.1161 12.861 18.8302L22.9889 11.1991C23.43 10.8668 23.5182 10.2398 23.1858 9.79867Z" fill="#86B3F7"/>
</svg>
