<svg width="28" height="28" viewBox="0 0 28 28" fill="none" xmlns="http://www.w3.org/2000/svg">
<path d="M25.9237 8.82057C27.1982 11.7546 27.3461 15.0555 26.3393 18.0917C25.3325 21.128 23.2415 23.6864 20.4665 25.2776C17.6915 26.8688 14.4272 27.381 11.2982 26.7161C8.1692 26.0513 5.39517 24.2562 3.50683 21.6742C1.61848 19.0922 0.748413 15.9046 1.06308 12.7212C1.37774 9.53789 2.85504 6.58233 5.21235 4.41999C7.56966 2.25764 10.6415 1.04035 13.8401 1.00099C17.0387 0.961623 20.1395 2.10296 22.5493 4.20664L21.2667 5.67589C19.2184 3.88782 16.5828 2.91771 13.8641 2.95117C11.1453 2.98463 8.53438 4.0193 6.53072 5.85723C4.52707 7.69517 3.2714 10.2073 3.00395 12.9131C2.73649 15.6188 3.47603 18.3282 5.08108 20.5228C6.68612 22.7175 9.04398 24.2433 11.7035 24.8084C14.3631 25.3735 17.1377 24.9381 19.4964 23.5857C21.8551 22.2332 23.6323 20.0586 24.4881 17.4779C25.3439 14.8971 25.2181 12.0914 24.1348 9.59762L25.9237 8.82057Z" fill="white"/>
<path d="M10.9923 16.9616L24.5296 4.69702L25.8724 6.17919L12.3352 18.4437L10.9923 16.9616Z" fill="white"/>
<path d="M9.54542 12L12.5 16L12 18L8.00001 14L9.54542 12Z" fill="white"/>
</svg>
