<svg width="28" height="28" viewBox="0 0 28 28" fill="none" xmlns="http://www.w3.org/2000/svg">
<path d="M0.623062 13.7929C0.278923 13.361 0.350114 12.7318 0.782071 12.3877L13.3518 2.3734C13.7837 2.02926 14.4129 2.10045 14.757 2.53241C15.1012 2.96437 15.03 3.59352 14.598 3.93765L2.02831 13.9519C1.59635 14.2961 0.967201 14.2249 0.623062 13.7929Z" fill="#86B3F7"/>
<path d="M13.2435 2.46743C13.5905 2.03774 14.2201 1.97069 14.6498 2.31766L27.4188 12.6286C27.8485 12.9756 27.9155 13.6052 27.5686 14.0349C27.2216 14.4646 26.592 14.5316 26.1623 14.1847L13.3933 3.87369C12.9636 3.52672 12.8966 2.89711 13.2435 2.46743Z" fill="#86B3F7"/>
<path d="M11 27V19H17V27C17 27 14.9999 27 20 27C25 27 26 26 26 21V15.5L14 6L1.99996 15.5C1.99996 15.5 1.99992 16.5 1.99996 21C2.00001 25.5 1.49999 27 7.99996 27H11Z" fill="#86B3F7"/>
</svg>
